<?xml version="1.0" encoding="iso-8859-1"?>
<!-- Uploaded to: SVG Repo, www.svgrepo.com, Generator: SVG Repo Mixer Tools -->
<svg version="1.1" id="Layer_1" xmlns="http://www.w3.org/2000/svg" xmlns:xlink="http://www.w3.org/1999/xlink" 
	 viewBox="0 0 512 512" xml:space="preserve">
<g>
	<polygon style="fill:#F1506E;" points="440.278,371.697 400.491,371.697 400.491,355.992 424.573,355.992 424.573,268.041 
		440.278,268.041 	"/>
	<polygon style="fill:#F1506E;" points="111.509,371.697 71.722,371.697 71.722,268.041 87.427,268.041 87.427,355.992 
		111.509,355.992 	"/>
</g>
<g>
	<rect x="71.889" y="171.954" style="fill:#BF9484;" width="136.083" height="48.029"/>
	<rect x="7.853" y="91.898" style="fill:#BF9484;" width="136.083" height="48.029"/>
	<rect x="304.027" y="171.954" style="fill:#BF9484;" width="136.083" height="48.029"/>
	<rect x="368.064" y="91.898" style="fill:#BF9484;" width="136.083" height="48.029"/>
</g>
<g>
	<rect x="111.918" y="252" style="fill:#FBB03B;" width="288.175" height="24.014"/>
	<circle style="fill:#FBB03B;" cx="135.926" cy="195.963" r="24.014"/>
	<circle style="fill:#FBB03B;" cx="87.901" cy="115.917" r="24.014"/>
	<circle style="fill:#FBB03B;" cx="376.074" cy="195.963" r="24.014"/>
	<circle style="fill:#FBB03B;" cx="424.101" cy="115.917" r="24.014"/>
</g>
<rect x="111.918" y="276.009" style="fill:#A65A53;" width="288.175" height="112.064"/>
<g>
	<rect x="231.981" y="276.009" style="fill:#FFFFFF;" width="48.029" height="48.029"/>
	<rect x="312.037" y="348.055" style="fill:#FFFFFF;" width="64.037" height="48.029"/>
</g>
<rect x="111.918" y="388.073" style="fill:#514A51;" width="288.175" height="32.019"/>
<path d="M287.866,331.892h-63.734v-63.733h63.734V331.892z M239.838,316.187h32.323v-32.322h-32.323V316.187z"/>
<rect x="247.624" y="292.123" width="16.753" height="15.706"/>
<rect x="328.245" y="364.368" width="31.411" height="15.706"/>
<path d="M512,147.784V84.05H360.213v63.734h55.983v16.313H296.176v63.734h71.857v16.314H143.967v-16.314h71.857v-63.734H95.804
	v-16.313h55.983V84.05H0v63.734h80.098v16.313h-16.06v63.734h64.224v16.314h-24.2v23.896h-8.258v15.706h8.258V427.95h303.877
	V283.746h8.258v-15.706h-8.258v-23.895h-24.2v-16.314h64.224v-63.734h-16.06v-16.313H512V147.784z M163.377,179.803h36.742v32.323
	h-36.742c2.803-4.742,4.418-10.265,4.418-16.162C167.796,190.067,166.18,184.545,163.377,179.803z M115.349,99.755h20.732v32.323
	h-20.732c2.803-4.742,4.418-10.265,4.418-16.162C119.767,110.021,118.152,104.497,115.349,99.755z M60.452,132.079H15.706V99.755
	h44.746c-2.803,4.742-4.418,10.265-4.418,16.162C56.033,121.813,57.649,127.337,60.452,132.079z M71.739,115.917
	c0-8.911,7.25-16.162,16.162-16.162c8.911,0,16.162,7.251,16.162,16.162c0,6.04-3.337,11.309-8.258,14.083v-13.779H80.099v13.841
	C75.12,127.304,71.739,121.999,71.739,115.917z M108.48,212.126H79.743v-32.323h28.737c-2.803,4.742-4.418,10.265-4.418,16.162
	C104.062,201.862,105.677,207.384,108.48,212.126z M119.767,195.964c0-8.911,7.25-16.162,16.162-16.162
	c8.911,0,16.162,7.251,16.162,16.162c0,5.984-3.277,11.206-8.123,14.001v-14.17h-15.706v14.391
	C123.209,207.451,119.767,202.103,119.767,195.964z M392.233,412.245H119.767v-16.466H304.18v8.156h79.743v-8.156h8.309V412.245z
	 M319.886,388.23v-32.323h48.332v32.323H319.886z M392.233,268.041h-96.445v15.706h96.445v96.327h-8.309v-39.872H304.18v39.872
	H119.767v-96.327h96.446v-15.706h-96.446v-8.19h272.466V268.041z M392.233,195.964c0,6.139-3.441,11.487-8.495,14.223v-14.391
	h-15.706v14.17c-4.846-2.793-8.123-8.017-8.123-14.001c0-8.911,7.25-16.162,16.162-16.162
	C384.983,179.803,392.233,187.053,392.233,195.964z M311.881,179.803h36.741c-2.803,4.742-4.418,10.265-4.418,16.162
	c0,5.897,1.616,11.419,4.418,16.162h-36.741V179.803z M432.257,212.126H403.52c2.803-4.742,4.418-10.265,4.418-16.162
	c0-5.897-1.616-11.42-4.418-16.162h28.737V212.126z M424.099,99.755c8.911,0,16.162,7.251,16.162,16.162
	c0,6.082-3.381,11.387-8.36,14.144v-13.841h-15.706V130c-4.922-2.774-8.258-8.042-8.258-14.083
	C407.938,107.006,415.188,99.755,424.099,99.755z M496.294,132.079h-44.746c2.803-4.742,4.418-10.265,4.418-16.162
	c0-5.896-1.616-11.42-4.418-16.162h44.746V132.079z M375.919,99.755h20.732c-2.803,4.742-4.418,10.265-4.418,16.162
	c0,5.896,1.616,11.42,4.418,16.162h-20.732V99.755z"/>
</svg>