<?xml version="1.0" encoding="iso-8859-1"?>
<!-- Uploaded to: SVG Repo, www.svgrepo.com, Generator: SVG Repo Mixer Tools -->
<svg height="800px" width="800px" version="1.1" id="Layer_1" xmlns="http://www.w3.org/2000/svg" xmlns:xlink="http://www.w3.org/1999/xlink" 
	 viewBox="0 0 512 512" xml:space="preserve">
<g transform="translate(1 1)">
	<path style="fill:#FFDD09;" d="M357.4,502.467H152.6c-23.893,0-42.667-18.773-42.667-42.667V50.2
		c0-23.893,18.773-42.667,42.667-42.667h204.8c23.893,0,42.667,18.773,42.667,42.667v409.6
		C400.067,483.693,381.293,502.467,357.4,502.467"/>
	<path style="fill:#FD9808;" d="M357.4,7.533h-25.6c23.893,0,42.667,18.773,42.667,42.667v409.6
		c0,23.893-18.773,42.667-42.667,42.667h25.6c23.893,0,42.667-18.773,42.667-42.667V50.2C400.067,26.307,381.293,7.533,357.4,7.533"
		/>
	<path style="fill:#FFFFFF;" d="M152.6,7.533h25.6c-23.04,0-42.667,18.773-42.667,42.667v409.6
		c0,23.893,18.773,42.667,42.667,42.667h-25.6c-23.893,0-42.667-18.773-42.667-42.667V50.2C109.933,26.307,129.56,7.533,152.6,7.533
		"/>
	<g>
		<path style="fill:#FCC309;" d="M169.667,263.533L169.667,263.533c-14.507,0-25.6,11.093-25.6,25.6c0,14.507,11.093,25.6,25.6,25.6
			s25.6-11.093,25.6-25.6C195.267,274.627,184.173,263.533,169.667,263.533"/>
		<path style="fill:#FCC309;" d="M255,263.533L255,263.533c-14.507,0-25.6,11.093-25.6,25.6c0,14.507,11.093,25.6,25.6,25.6
			s25.6-11.093,25.6-25.6C280.6,274.627,269.507,263.533,255,263.533"/>
		<path style="fill:#FCC309;" d="M340.333,263.533L340.333,263.533c-14.507,0-25.6,11.093-25.6,25.6c0,14.507,11.093,25.6,25.6,25.6
			c14.507,0,25.6-11.093,25.6-25.6C365.933,274.627,354.84,263.533,340.333,263.533"/>
	</g>
	<g>
		<path style="fill:#FD9808;" d="M340.333,263.533c-3.413,0-5.973,0.853-8.533,1.707c10.24,3.413,17.067,12.8,17.067,23.893
			c0,11.093-6.827,20.48-17.067,23.893c2.56,0.853,5.12,1.707,8.533,1.707c14.507,0,25.6-11.093,25.6-25.6
			C365.933,274.627,354.84,263.533,340.333,263.533"/>
		<path style="fill:#FD9808;" d="M255,263.533c-3.413,0-5.973,0.853-8.533,1.707c10.24,3.413,17.067,12.8,17.067,23.893
			c0,11.093-6.827,20.48-17.067,23.893c2.56,0.853,5.12,1.707,8.533,1.707c14.507,0,25.6-11.093,25.6-25.6
			C280.6,274.627,269.507,263.533,255,263.533"/>
		<path style="fill:#FD9808;" d="M169.667,263.533c-3.413,0-5.973,0.853-8.533,1.707c10.24,3.413,17.067,12.8,17.067,23.893
			c0,11.093-6.827,20.48-17.067,23.893c2.56,0.853,5.973,1.707,8.533,1.707c14.507,0,25.6-11.093,25.6-25.6
			C195.267,274.627,184.173,263.533,169.667,263.533"/>
	</g>
	<path style="fill:#FCC309;" d="M314.733,408.6c0-33.28-26.453-59.733-59.733-59.733s-59.733,26.453-59.733,59.733
		S221.72,468.333,255,468.333S314.733,441.88,314.733,408.6"/>
	<path style="fill:#FD9808;" d="M255,348.867c-4.267,0-8.533,0.853-12.8,1.707c26.453,5.973,46.933,29.867,46.933,58.027
		c0,29.013-20.48,52.053-46.933,58.027c4.267,0.853,8.533,1.707,12.8,1.707c33.28,0,59.733-26.453,59.733-59.733
		S288.28,348.867,255,348.867"/>
	<path style="fill:#FCC309;" d="M340.333,229.4H169.667c-9.387,0-17.067-7.68-17.067-17.067V75.8c0-9.387,7.68-17.067,17.067-17.067
		h170.667c9.387,0,17.067,7.68,17.067,17.067v136.533C357.4,221.72,349.72,229.4,340.333,229.4"/>
	<g>
		<path style="fill:#FD9808;" d="M340.333,58.733h-25.6c9.387,0,17.067,7.68,17.067,17.067v136.533
			c0,9.387-7.68,17.067-17.067,17.067h25.6c9.387,0,17.067-7.68,17.067-17.067V75.8C357.4,66.413,349.72,58.733,340.333,58.733"/>
		<path style="fill:#FD9808;" d="M255,178.2c-39.253,0-75.093,15.36-100.693,40.96c2.56,5.973,8.533,10.24,15.36,10.24h170.667
			c6.827,0,12.8-4.267,15.36-10.24C330.093,193.56,294.253,178.2,255,178.2"/>
	</g>
	<path d="M357.4,511H152.6c-28.16,0-51.2-23.04-51.2-51.2V50.2c0-28.16,23.04-51.2,51.2-51.2h204.8c28.16,0,51.2,23.04,51.2,51.2
		v409.6C408.6,487.96,385.56,511,357.4,511z M152.6,16.067c-18.773,0-34.133,15.36-34.133,34.133v409.6
		c0,18.773,15.36,34.133,34.133,34.133h204.8c18.773,0,34.133-15.36,34.133-34.133V50.2c0-18.773-15.36-34.133-34.133-34.133H152.6z
		"/>
	<path d="M340.333,237.933H169.667c-14.507,0-25.6-11.093-25.6-25.6V75.8c0-14.507,11.093-25.6,25.6-25.6h170.667
		c14.507,0,25.6,11.093,25.6,25.6v136.533C365.933,226.84,354.84,237.933,340.333,237.933z M169.667,67.267
		c-4.267,0-8.533,4.267-8.533,8.533v136.533c0,5.12,3.413,8.533,8.533,8.533h170.667c5.12,0,8.533-3.413,8.533-8.533V75.8
		c0-5.12-3.413-8.533-8.533-8.533H169.667z"/>
	<path d="M169.667,323.267c-18.773,0-34.133-15.36-34.133-34.133c0-18.773,15.36-34.133,34.133-34.133s34.133,15.36,34.133,34.133
		C203.8,307.907,188.44,323.267,169.667,323.267z M169.667,272.067c-9.387,0-17.067,7.68-17.067,17.067
		c0,9.387,7.68,17.067,17.067,17.067c9.387,0,17.067-7.68,17.067-17.067C186.733,279.747,179.053,272.067,169.667,272.067z"/>
	<path d="M255,323.267c-18.773,0-34.133-15.36-34.133-34.133C220.867,270.36,236.227,255,255,255s34.133,15.36,34.133,34.133
		C289.133,307.907,273.773,323.267,255,323.267z M255,272.067c-9.387,0-17.067,7.68-17.067,17.067
		c0,9.387,7.68,17.067,17.067,17.067s17.067-7.68,17.067-17.067C272.067,279.747,264.387,272.067,255,272.067z"/>
	<path d="M340.333,323.267c-18.773,0-34.133-15.36-34.133-34.133c0-18.773,15.36-34.133,34.133-34.133s34.133,15.36,34.133,34.133
		C374.467,307.907,359.107,323.267,340.333,323.267z M340.333,272.067c-9.387,0-17.067,7.68-17.067,17.067
		c0,9.387,7.68,17.067,17.067,17.067c9.387,0,17.067-7.68,17.067-17.067C357.4,279.747,349.72,272.067,340.333,272.067z"/>
	<path d="M255,476.867c-37.547,0-68.267-30.72-68.267-68.267s30.72-68.267,68.267-68.267s68.267,30.72,68.267,68.267
		S292.547,476.867,255,476.867z M255,357.4c-28.16,0-51.2,23.04-51.2,51.2c0,28.16,23.04,51.2,51.2,51.2s51.2-23.04,51.2-51.2
		C306.2,380.44,283.16,357.4,255,357.4z"/>
	<path d="M340.333,237.933H169.667c-10.24,0-19.627-5.973-23.04-15.36c-1.707-3.413-0.853-6.827,1.707-9.387
		c29.013-28.16,66.56-43.52,106.667-43.52s77.653,15.36,106.667,43.52c2.56,2.56,3.413,5.973,1.707,9.387
		C359.96,231.96,350.573,237.933,340.333,237.933z M166.253,220.013c0.853,0.853,2.56,0.853,3.413,0.853h170.667
		c1.707,0,2.56,0,3.413-0.853c-23.893-21.333-55.467-33.28-88.747-33.28C222.573,186.733,191,198.68,166.253,220.013z"/>
	<path d="M255,186.733c-1.707,0-2.56,0-4.267-0.853c-4.267-2.56-5.973-7.68-3.413-11.947l42.667-76.8
		c2.56-4.267,7.68-5.973,11.947-3.413c4.267,2.56,5.973,7.68,3.413,11.947l-42.667,76.8
		C260.973,185.027,258.413,186.733,255,186.733z"/>
</g>
</svg>